<?xml version="1.0" encoding="UTF-8"?>
<svg width="80px" height="80px" viewBox="0 0 80 80" version="1.1" xmlns="http://www.w3.org/2000/svg" xmlns:xlink="http://www.w3.org/1999/xlink">
    <title>logo 2</title>
    <g id="Page-1" stroke="none" stroke-width="1" fill="none" fill-rule="evenodd">
        <g id="Artboard" transform="translate(-160.000000, -24.000000)" fill="#000000" fill-rule="nonzero">
            <g id="logo-2" transform="translate(160.000000, 24.000000)">
                <path d="M49.0395415,68.4 L50.8,78.6495925 L43.0429799,80 L42.7679083,78.3795111 L48.695702,77.4072177 L48.2280802,74.7064028 L42.9879656,75.5706636 L42.6991404,73.9501746 L47.9530086,73.0859139 L47.4853868,70.385099 L41.4888252,71.3708964 L41.2,69.7504075 L49.0395415,68.4 Z M30.0096202,68.4 L32.1562663,68.7252336 L34.1534623,72.7228972 L36.4359721,73.0616822 L36.9794268,69.4570093 L38.8,69.7415888 L37.210395,80 L32.6046164,79.2953271 C31.5005128,79.1831854 30.4828418,78.6489476 29.7650656,77.8046729 C29.3278406,77.1745757 29.1354925,76.4099887 29.2191126,75.6529116 L29.2487836,75.446729 C29.455589,73.9511814 30.6989779,72.8133934 32.2106118,72.7364486 L30.0096202,68.4 Z M31.1381895,75.4014069 L31.110116,75.5415888 C30.9470796,76.6528037 31.6535707,77.371028 32.9986211,77.5742991 L35.6479627,77.9808411 L36.1778311,74.5116822 L33.5013167,74.1864486 C32.2073769,73.9928571 31.3570736,74.4875909 31.1381895,75.4014069 Z M54.4949349,66 L58.5794501,73.7602787 L61.6081042,72.2513357 L62.4,73.7602787 L54.6477569,77.6 L53.8558611,76.0910569 L56.8845152,74.5955865 L52.8,66.8353078 L54.4949349,66 Z M22.7430811,63.5217624 C23.8368184,64.3360103 24.560355,65.5618642 24.7503242,66.9225394 C24.9284203,68.1981723 24.6234819,69.4914591 23.9024135,70.5455166 L23.7526713,70.7530622 C22.910565,71.8620346 21.665366,72.5842525 20.2942634,72.7589457 C18.9231609,72.9336389 17.5399556,72.5463079 16.4525578,71.6831751 C15.3609823,70.8643011 14.639521,69.6365273 14.4497523,68.2748259 C14.2726349,67.0039047 14.5724943,65.715438 15.2841831,64.6610425 L15.4429676,64.438775 C16.2869849,63.3317974 17.533124,62.6121404 18.9041333,62.4399194 C20.2751427,62.2676984 21.6572963,62.6571992 22.7430811,63.5217624 Z M19.1658707,64.0634319 C18.2606558,64.2017225 17.4496516,64.7059168 16.9185225,65.4605892 L16.9185225,65.5129899 C16.3283725,66.2371496 16.0531296,67.1723274 16.1555522,68.1052921 C16.2579748,69.0382567 16.7293317,69.8894746 17.4621479,70.4648582 C18.1940764,71.0213081 19.1183924,71.2519675 20.0220074,71.1036612 C20.8561134,70.966763 21.6061324,70.517865 22.1261116,69.850253 L22.2512295,69.6788474 C22.8463266,68.9578111 23.1259826,68.022766 23.0258852,67.0887435 C22.9257878,66.154721 22.4545521,65.302108 21.7205475,64.726979 C20.9929959,64.1645966 20.0710856,63.9251413 19.1658707,64.0634319 Z M61.2823674,60 L67.0273736,65.884878 L69.2843403,63.7287805 L70.4,64.8702439 L64.6293465,70.4 L63.5136868,69.2458537 L65.7578298,67.0897561 L60,61.204878 L61.2823674,60 Z M10.2627615,55.2 L13.0878661,59.7561684 L16.6225941,57.3875181 L17.6,58.9759071 L8.96401674,64.8 L4.8,58.0702467 L6.13891213,57.1367199 L9.3790795,62.2780842 L11.748954,60.6896952 L8.92384937,56.1335269 L10.2627615,55.2 Z M68.6445916,49.6 L75.2,58.4935197 L74.406181,60 L63.6,58.8635324 L64.4962472,57.21169 L67.0569536,57.5288437 L69.3487859,53.3133418 L67.7739514,51.1989835 L68.6445916,49.6 Z M70.4498896,54.621601 L68.7214128,57.6742058 L73.010596,58.1499365 L70.4498896,54.621601 Z M69.7410405,38.8 L80,40.1010626 L79.7452023,42.0595041 L74.4883237,44.6068477 L78.940578,48.4689492 L78.6589595,50.4 L68.4,49.0304604 L68.6279769,47.1815821 L75.990289,48.1676505 L71.6050867,44.2233766 L76.8351445,41.5938607 L69.4996532,40.6077922 L69.7410405,38.8 Z M1.51047619,41.2 L2.22857143,47.4354949 L4.81619048,47.0484642 L4.1847619,41.5153584 L5.6952381,41.2860068 L6.32666667,46.8191126 L10.1895238,46.2313993 L10.4,48.1522184 L0.928571429,49.6 L0,41.4293515 L1.51047619,41.2 Z M9.94481132,30.4 L11.6,30.6599278 L10.4235849,37.6 L0,36.0924188 L0.300943396,34.298917 L9.05566038,35.598556 L9.94481132,30.4 Z M66,23.6 L76.9771812,23.8113821 L77.6,25.4178862 L69.944519,34 L69.2308725,32.1398374 L71.0863535,30.1105691 L69.282774,25.4178862 L66.6876957,25.4178862 L66,23.6 Z M10.974703,19.2785221 L11.2216944,19.4013184 C12.4499064,20.0385022 13.3689033,21.1343758 13.7738378,22.4446653 C14.1787722,23.7549547 14.0359849,25.1707452 13.3773036,26.3764522 C12.7714166,27.6035184 11.6861013,28.5344564 10.3708618,28.9552523 C9.14330497,29.3479952 7.81402803,29.2648114 6.65068764,28.7291671 L6.4040378,28.6074693 C5.16784852,27.9748253 4.24065286,26.8786146 3.83049134,25.5648007 C3.42032981,24.2509868 3.5615471,22.8295813 4.22245743,21.6195135 C4.8332052,20.3903592 5.92419711,19.4595043 7.24445421,19.041089 C8.47669417,18.6505681 9.80962922,18.7378204 10.974703,19.2785221 Z M75.3293065,25.4178862 L70.9695749,25.4178862 L72.2800895,28.8704607 L75.3293065,25.4178862 Z M7.74531596,20.7171465 C6.84544939,20.9689357 6.08884027,21.5728246 5.65087314,22.3888298 C5.22406464,23.1981569 5.15046014,24.144474 5.44710274,25.0086617 C5.72092668,25.8063734 6.28830639,26.470244 7.03247323,26.8714945 L7.22213043,26.9662613 C8.03503876,27.4237665 9.00114364,27.5360657 9.89942964,27.2774684 C10.7977156,27.0188711 11.5513213,26.4115039 11.9878447,25.5943141 C12.405675,24.789387 12.4743253,23.8513706 12.1780442,22.9954892 C11.9045539,22.2054447 11.3417883,21.5479908 10.6044835,21.1495022 L10.4165874,21.0553483 C9.6101687,20.5875313 8.64518253,20.4653573 7.74531596,20.7171465 Z M63.8157248,8.4 C64.6513029,8.4 65.4494157,8.76771835 66.019656,9.41542794 C67.0457959,10.2753253 67.748191,11.4959992 68,12.8570154 L66.4412776,13.2635021 C66.289104,12.2247177 65.8121348,11.2703173 65.0869779,10.5535907 C64.3654863,9.87770694 63.6213598,9.84995145 63.1848033,10.2782862 L63.1066339,10.3638969 C62.6083538,10.973627 62.7361179,11.556258 63.8604423,13.236403 C64.9415233,14.8519271 65.3965413,16.3171233 64.475856,17.5958551 L64.3587224,17.7484055 C63.1449631,19.2253073 61.3307125,19.1033612 59.7592138,17.6535586 C58.5937813,16.6367882 57.8246009,15.1984073 57.6,13.6157906 L59.209828,13.358349 C59.3030043,14.5872026 59.8437496,15.7292779 60.7174447,16.542495 C61.4750108,17.2438838 62.255212,17.3571562 62.7597984,16.8710159 L62.8511057,16.7728374 C63.3110565,16.203756 63.2727273,15.6346746 62.1611794,14.062926 C60.9291681,12.2598671 60.4574838,10.9607687 61.4907547,9.57032754 L61.6117936,9.41542794 C62.182034,8.76771835 62.9801467,8.4 63.8157248,8.4 Z M21.4365957,3.6 L24.8,13.8738302 L23.6098723,14.8090121 L17.2582128,10.5414211 L19.6384681,17.864818 L18.4354043,18.8 L9.6,12.8332756 L11.1005957,11.6610052 L17.504,16.1656846 L14.916766,8.63154246 L16.0939574,7.72270364 L22.5620426,12.2010399 L19.9748085,4.73275563 L21.4365957,3.6 Z M47.2754717,0 L55.2,2.48376471 L54.7113208,4.12141176 L51.6207547,3.15247059 L49.1113208,11.6 L47.3943396,11.0541176 L49.890566,2.60658824 L46.8,1.63764706 L47.2754717,0 Z M41.9036649,0 L43.6,0.133333333 L42.9089005,10.4 L41.2,10.2666667 L41.9036649,0 Z M58.452,4.8 L60,5.68708921 L59.244,7.09893542 C59.0386122,7.66534378 58.5991277,8.10531039 58.047483,8.29676504 C57.4958383,8.48821968 56.8907126,8.41079706 56.4,8.08597834 L56.58,7.36131391 C57.36,7.63618663 57.888,7.44877341 58.164,6.78658006 L57.576,6.44923628 L58.452,4.8 Z M31.6,4.8 C32.2627417,4.8 32.8,5.3372583 32.8,6 C32.8,6.6627417 32.2627417,7.2 31.6,7.2 C30.9372583,7.2 30.4,6.6627417 30.4,6 C30.4,5.3372583 30.9372583,4.8 31.6,4.8 Z" id="logo"></path>
            </g>
        </g>
    </g>
</svg>