<?xml version="1.0" encoding="UTF-8"?>
<svg width="252px" height="253px" viewBox="0 0 252 253" version="1.1" xmlns="http://www.w3.org/2000/svg" xmlns:xlink="http://www.w3.org/1999/xlink">
    <title>logo</title>
    <defs>
        <path d="M143.948319,214 L148.362602,243.138214 L157.929518,241.681189 L159,248.746604 L131.070274,253 L130,245.934585 L139.567124,244.477768 L135.152841,215.339554 L143.948319,214 Z M102.163968,214 L124,217.1784 L118.836032,253 L97,249.8216 L98.0077537,242.830606 L111.160274,244.745153 L112.204766,237.499244 L100.575986,235.806407 L101.547001,229.070741 L113.175781,230.763578 L114.308529,222.905129 L101.156214,220.990788 L102.163968,214 Z M169.981559,205 L183.130197,231.323764 L191.811674,227.0029 L195,233.385801 L169.655696,246 L166.46737,239.617099 L175.148847,235.296235 L162,208.972263 L169.981559,205 Z M73.8136151,200 L82.6355787,204.401609 L83.3300802,219.974902 L85.204174,220.909963 L91.1834935,208.66637 L99,212.56634 L83.1602271,245 L70.0411628,238.454572 C67.5121252,237.192641 65.574209,235.669998 64.2276183,233.887673 C62.8814354,232.104317 62.1465606,230.215028 62.0217706,228.21898 C61.8980001,226.22252 62.3019365,224.269341 63.2345994,222.359854 C64.2877704,220.203463 65.8301102,218.578596 67.8605994,217.485459 C69.892312,216.392115 72.2537394,216.076169 74.9459014,216.538856 L73.8136151,200 Z M73.887021,223.537697 C72.82549,223.88868 71.9778555,224.711213 71.3461569,226.004882 C70.7446362,227.236311 70.6294297,228.385506 70.9989061,229.451439 C71.3694021,230.517166 72.2702558,231.407504 73.7024867,232.121835 L78.5476849,234.539351 L82.4738818,226.500339 L77.6284797,224.082823 C76.1964527,223.368286 74.9495717,223.186096 73.887021,223.537697 Z M203.933032,175 L221,209.577907 L214.007443,217 L179,201.464911 L185.392329,194.680098 L191.47471,197.5315 L200.727444,187.710189 L197.611583,181.709863 L203.933032,175 Z M46.0558181,172.629972 C48.9555753,173.974284 51.3895442,176.010328 53.3593561,178.738514 C55.3293719,181.466495 56.5013886,184.424715 56.8752021,187.613376 C57.2494236,190.801833 56.7820037,193.885674 55.4733503,196.863266 C54.1653087,199.841675 52.0918977,202.354917 49.253321,204.404421 C46.4153562,206.453517 43.3840606,207.626323 40.1588224,207.921003 C36.9348079,208.216091 33.8674158,207.684443 30.9580735,206.326469 C28.0493431,204.968086 25.6094602,202.925312 23.6396483,200.197126 C21.6698364,197.469145 20.4984315,194.510517 20.1240061,191.322264 C19.7503965,188.133399 20.2210794,185.068932 21.5350351,182.128659 C22.8500104,179.188385 24.9262766,176.693089 27.7640375,174.643992 C30.6026142,172.594285 33.6359491,171.410467 36.8644502,171.091723 C40.0929513,170.772775 43.1574884,171.285661 46.0558181,172.629972 Z M204.034026,194.108658 L197.924398,200.593672 L210.528987,206.505383 L204.034026,194.108658 Z M32.9574561,181.836018 C30.3946001,183.686485 28.8512171,185.859979 28.3262874,188.35548 C27.8019695,190.851388 28.3752319,193.256547 30.0464824,195.571161 C31.7379225,197.913714 33.8443711,199.23335 36.3639928,199.530477 C38.8848381,199.827808 41.4403524,199.041043 44.0303318,197.170998 C46.5929839,195.32053 48.1367748,193.147648 48.6612966,190.651536 C49.1860223,188.156239 48.6025632,185.736805 46.9111231,183.394253 C45.2398726,181.079639 43.1307728,179.783455 40.5821923,179.506313 C38.0346315,179.229171 35.4929847,180.005128 32.9574561,181.836018 Z M218.032123,136 L252,147.513093 L248.688837,157.2922 L221.943068,158.858533 L242.262896,176.26935 L238.968081,186 L205,174.486907 L207.803137,166.208504 L228.174258,173.11317 L210.376783,158.607871 L212.638992,151.927287 L235.648336,151.199221 L215.228782,144.278199 L218.032123,136 Z M23.6309128,146 L26.6060709,156.641516 L40.6224988,152.66314 L43,161.166475 L8.3535397,171 L2,148.274982 L8.76148051,146.355847 L12.7377241,160.577737 L20.0421002,158.504443 L17.066737,147.862927 L23.6309128,146 Z M2.86438307,99 L9.87601661,99.8653367 L8.08350846,114.613674 L15.6579949,115.548421 L16.999437,104.512677 L23.8062655,105.35266 L22.4650297,116.388196 L37,118.181837 L35.9283313,127 L0,122.566708 L2.86438307,99 Z M210,89 L247.816465,94.0378442 L250,104.134213 L217.785611,125 L215.789452,115.770532 L221.511473,112.231069 L218.622162,98.8711834 L211.97409,98.1275285 L210,89 Z M225.702609,99.6777147 L227.61029,108.499217 L239.469952,101.165651 L225.702609,99.6777147 Z M9.34833675,79 L36.3587865,90.2385154 L40.7450953,79.5507537 L47,82.1533595 L39.2653544,101 L6,87.1588789 L9.34833675,79 Z M215.912987,40.2528166 C218.922457,40.9458843 221.661963,42.8310701 224.130887,45.9079558 C226.642957,49.0387817 227.931761,52.17358 227.997506,55.3133959 C228.063045,58.4527936 226.836904,61.1805322 224.319698,63.497866 L218.310003,56.007927 C219.167562,55.2046794 219.607026,54.2776622 219.626133,53.2272936 C219.645034,52.1762979 219.265152,51.1656526 218.48546,50.1941035 C217.813835,49.3571956 217.053455,48.8639991 216.20473,48.7151411 C215.355389,48.565865 214.519402,48.8332657 213.697591,49.5160889 C212.795654,50.2656055 212.438783,51.2812684 212.628621,52.5637049 C212.817227,53.8461414 213.355924,55.64749 214.245944,57.9677508 C215.108024,60.309964 215.7213,62.2856772 216.085157,63.8959357 C216.448397,65.505567 216.434837,67.1699746 216.045915,68.8881133 C215.65576,70.606043 214.626032,72.1596434 212.955086,73.5480785 C211.363649,74.8704474 209.587306,75.6601054 207.627699,75.9166345 C205.667064,76.1729546 203.674174,75.8382332 201.649438,74.9120523 C199.623469,73.9858714 197.755699,72.456105 196.045101,70.3242164 C194.377236,68.2454316 193.214169,66.1078981 192.55672,63.9107796 C191.898039,61.7134521 191.824076,59.5821907 192.333599,57.5169955 C192.841889,55.4520094 193.990574,53.6320535 195.777396,52.0577551 L201.689912,59.4260153 C200.741748,60.3929649 200.244553,61.4134364 200.199764,62.4861755 C200.153743,63.5584964 200.531775,64.594021 201.333246,65.5929583 C202.156084,66.6182384 203.037681,67.2354136 203.978654,67.4434384 C204.918395,67.6516723 205.800403,67.4141686 206.62283,66.7309273 C207.312329,66.158075 207.692416,65.4478636 207.765146,64.6009203 C207.836644,63.753977 207.742341,62.8654288 207.482238,61.9344393 C207.221519,61.0038679 206.767674,59.7500741 206.121731,58.1728487 C205.205618,55.8743311 204.560702,53.913462 204.186778,52.2904502 C203.812443,50.6668112 203.832578,48.9850507 204.249646,47.2449596 C204.665277,45.5046595 205.748834,43.9071543 207.499496,42.452653 C210.098472,40.2931672 212.902901,39.5591218 215.912987,40.2528166 Z M48.9330688,37.3531981 C52.0899187,37.9868291 54.9809287,39.4598023 57.6044677,41.7729325 C60.2286183,44.0866736 62.0515794,46.7806748 63.0743702,49.8553435 C64.0967534,52.9302158 64.2722811,56.0285107 63.6005459,59.1479877 C62.9288106,62.2684831 61.4801457,65.0881515 59.2543474,67.6080111 C57.028549,70.127667 54.4023597,71.9210201 51.3755757,72.9872555 C48.3494032,74.0543057 45.2392384,74.2779402 42.0473236,73.6591773 C38.8547973,73.0408219 35.9474782,71.5743662 33.3233276,69.2608288 C30.6995847,66.947495 28.8878362,64.2528828 27.8893053,61.1759737 C26.8909782,58.1002866 26.7331867,54.9952705 27.4159307,51.8621473 C28.0992862,48.7294314 29.5532516,45.9028382 31.77905,43.3829785 C34.0048483,40.8633226 36.6314453,39.0705806 39.6576178,38.0037341 C42.6846057,36.937295 45.7764227,36.7209928 48.9330688,37.3531981 Z M44.3587453,45.3404932 C41.8092093,45.379395 39.5905462,46.4674236 37.7021445,48.6053937 C35.7909098,50.7690268 34.9685183,53.111486 35.2341545,55.6315493 C35.4999944,58.152631 36.8306215,60.4686125 39.2248124,62.5796976 C41.5941317,64.6685822 44.0531516,65.6938791 46.6026877,65.6549773 C49.1516121,65.6166865 51.3818955,64.5156227 53.2931301,62.3519896 C55.1815319,60.2140195 55.9804789,57.8740044 55.6889519,55.3303149 C55.3976288,52.7876437 54.0806607,50.4826606 51.7364168,48.4157728 C49.3673013,46.3268882 46.9076698,45.3022024 44.3587453,45.3404932 Z M104.881002,0 L109,37.1516241 L99.1182902,40.9718457 L85.3114656,20.8112827 L88.2340318,45.1797784 L78.3523221,49 L57,18.5107813 L65.7359984,15.1333047 L79.9150463,37.8544921 L76.5247467,10.9624736 L85.4994179,7.49286153 L100.585504,29.8632333 L96.0973507,3.39582124 L104.881002,0 Z M163.450752,6 L189,16.9165678 L186.228324,23.3222111 L177.476513,19.5828545 L166.045831,46 L158,42.5621453 L169.430681,16.1449998 L160.678871,12.4056432 L163.450752,6 Z M144.249688,2 L153,3.50418354 L146.750519,39 L138,37.4958165 L144.249688,2 Z M199.641286,24 L207,29.4140376 L193.835648,37 L189,33.4423983 L199.641286,24 Z M123.48505,15 C124.322259,15 125.084718,15.1995349 125.772425,15.5980066 C126.460133,15.9970764 127.003123,16.5398671 127.401993,17.2275748 C127.800664,17.9152824 128,18.6777409 128,19.5149502 C128,20.3326246 127.800664,21.0847176 127.401993,21.7724252 C127.003123,22.4601329 126.460133,23.0035216 125.772425,23.4019934 C125.084718,23.8010631 124.322259,24 123.48505,24 C122.667575,24 121.915282,23.8010631 121.227575,23.4019934 C120.539867,23.0035216 119.996478,22.4601329 119.598007,21.7724252 C119.199136,21.0847176 119,20.3326246 119,19.5149502 C119,18.6777409 119.199136,17.9152824 119.598007,17.2275748 C119.996478,16.5398671 120.539867,15.9970764 121.227575,15.5980066 C121.915282,15.1995349 122.667575,15 123.48505,15 Z" id="path-1"></path>
        <filter x="-19.8%" y="-19.8%" width="155.6%" height="155.3%" filterUnits="objectBoundingBox" id="filter-2">
            <feOffset dx="20" dy="20" in="SourceAlpha" result="shadowOffsetOuter1"></feOffset>
            <feGaussianBlur stdDeviation="20" in="shadowOffsetOuter1" result="shadowBlurOuter1"></feGaussianBlur>
            <feColorMatrix values="0 0 0 0 0   0 0 0 0 0   0 0 0 0 0  0 0 0 0.122120677 0" type="matrix" in="shadowBlurOuter1"></feColorMatrix>
        </filter>
    </defs>
    <g id="logo" stroke="none" stroke-width="1" fill="none" fill-rule="evenodd">
        <g>
            <use fill="black" fill-opacity="1" filter="url(#filter-2)" xlink:href="#path-1"></use>
            <use fill="#F7542F" fill-rule="evenodd" xlink:href="#path-1"></use>
        </g>
    </g>
</svg>